<?xml version="1.0" encoding="UTF-8"?>
<svg xmlns="http://www.w3.org/2000/svg" xmlns:xlink="http://www.w3.org/1999/xlink" width="70px" height="70px" viewBox="0 0 70 70" version="1.1">
<defs>
<linearGradient id="linear0" gradientUnits="userSpaceOnUse" x1="-597.3553" y1="900.6861" x2="-598.0993" y2="900.0601" gradientTransform="matrix(67.9,0,0,-67.9,40620.7375,61170.2875)">
<stop offset="0" style="stop-color:rgb(71.372549%,31.372549%,61.960784%);stop-opacity:1;"/>
<stop offset="1" style="stop-color:rgb(18.039216%,72.941176%,77.647059%);stop-opacity:1;"/>
</linearGradient>
</defs>
<g id="surface1">
<path style=" stroke:none;fill-rule:nonzero;fill:url(#linear0);" d="M 68.949219 35 C 68.949219 53.75 53.75 68.949219 35 68.949219 C 16.25 68.949219 1.050781 53.75 1.050781 35 C 1.050781 16.25 16.25 1.050781 35 1.050781 C 53.75 1.050781 68.949219 16.25 68.949219 35 Z M 68.949219 35 "/>
<path style=" stroke:none;fill-rule:nonzero;fill:rgb(100%,100%,100%);fill-opacity:1;" d="M 49.859375 48.527344 L 38.378906 20.773438 C 37.730469 19.335938 36.765625 18.636719 35.5 18.636719 L 34.484375 18.636719 C 33.214844 18.636719 32.253906 19.335938 31.605469 20.773438 L 26.609375 32.863281 L 22.828125 32.863281 C 21.699219 32.875 20.78125 33.785156 20.773438 34.921875 L 20.773438 34.949219 C 20.78125 36.078125 21.699219 36.996094 22.828125 37.003906 L 24.859375 37.003906 L 20.089844 48.527344 C 20.003906 48.78125 19.949219 49.042969 19.949219 49.316406 C 19.949219 49.960938 20.152344 50.46875 20.511719 50.863281 C 20.867188 51.257812 21.386719 51.449219 22.03125 51.449219 C 22.460938 51.441406 22.871094 51.308594 23.214844 51.054688 C 23.582031 50.800781 23.835938 50.433594 24.035156 50.015625 L 29.285156 36.996094 L 32.925781 36.996094 C 34.054688 36.984375 34.972656 36.078125 34.984375 34.9375 L 34.984375 34.886719 C 34.972656 33.757812 34.054688 32.839844 32.925781 32.828125 L 30.984375 32.828125 L 34.992188 22.847656 L 45.910156 50.007812 C 46.113281 50.425781 46.367188 50.792969 46.734375 51.046875 C 47.074219 51.300781 47.496094 51.433594 47.914062 51.441406 C 48.5625 51.441406 49.070312 51.25 49.4375 50.855469 C 49.804688 50.460938 49.996094 49.953125 49.996094 49.304688 C 50.007812 49.042969 49.960938 48.773438 49.859375 48.527344 Z M 49.859375 48.527344 "/>
</g>
</svg>
