<?xml version="1.0" encoding="UTF-8"?>
<svg xmlns="http://www.w3.org/2000/svg" xmlns:xlink="http://www.w3.org/1999/xlink" width="70px" height="70px" viewBox="0 0 70 70" version="1.1">
<g id="surface1">
<path style=" stroke:none;fill-rule:evenodd;fill:rgb(90.980392%,25.490196%,25.882353%);fill-opacity:1;" d="M 70 35 C 70 54.328125 54.328125 70 35 70 C 15.671875 70 0 54.328125 0 35 C 0 15.671875 15.671875 0 35 0 C 54.328125 0 70 15.671875 70 35 Z M 70 35 "/>
<path style=" stroke:none;fill-rule:nonzero;fill:rgb(100%,100%,100%);fill-opacity:1;" d="M 47.347656 35.910156 C 48.558594 33.816406 50.515625 33.816406 51.726562 35.910156 L 59.28125 49.164062 C 60.492188 51.261719 59.5 52.96875 57.074219 52.96875 L 41.863281 52.96875 C 39.464844 52.96875 38.472656 51.261719 39.65625 49.164062 Z M 32.738281 10.390625 C 33.953125 8.296875 35.882812 8.296875 37.09375 10.390625 L 38.777344 13.421875 L 42.742188 20.394531 C 43.707031 22.378906 43.707031 24.71875 42.742188 26.703125 L 29.433594 49.773438 C 28.21875 51.644531 26.207031 52.832031 23.976562 52.96875 L 12.925781 52.96875 C 10.5 52.96875 9.507812 51.289062 10.71875 49.164062 Z M 32.738281 10.390625 "/>
</g>
</svg>
