<?xml version="1.0" encoding="UTF-8"?>
<svg xmlns="http://www.w3.org/2000/svg" xmlns:xlink="http://www.w3.org/1999/xlink" width="70px" height="70px" viewBox="0 0 70 70" version="1.1">
<g id="surface1">
<path style=" stroke:none;fill-rule:evenodd;fill:rgb(11.764706%,11.764706%,11.764706%);fill-opacity:1;" d="M 35 0 C 54.328125 0 70 15.671875 70 35 C 70 54.328125 54.328125 70 35 70 C 15.671875 70 0 54.328125 0 35 C 0 15.671875 15.671875 0 35 0 Z M 35 0 "/>
<path style=" stroke:none;fill-rule:nonzero;fill:rgb(100%,100%,100%);fill-opacity:1;" d="M 35.523438 49.628906 C 24.332031 49.628906 15.261719 46.394531 15.261719 42.0625 C 15.261719 39.800781 17.730469 37.765625 21.6875 36.328125 C 24.773438 38.3125 29.953125 39.324219 35.824219 39.324219 C 41.558594 39.324219 46.628906 38.085938 49.742188 36.191406 C 53.472656 37.609375 55.789062 39.59375 55.789062 41.777344 C 55.789062 46.117188 46.71875 49.628906 35.523438 49.628906 Z M 35.523438 49.628906 "/>
<path style=" stroke:none;fill-rule:nonzero;fill:rgb(100%,100%,100%);fill-opacity:1;" d="M 35.644531 38.351562 C 27.160156 38.351562 20.277344 35.691406 20.277344 32.410156 C 20.277344 30.589844 22.398438 28.960938 25.726562 27.875 C 28.097656 29.113281 31.652344 29.902344 35.644531 29.902344 C 39.632812 29.902344 43.191406 29.113281 45.5625 27.875 C 48.894531 28.964844 51.007812 30.589844 51.007812 32.410156 C 51.015625 35.691406 44.136719 38.351562 35.644531 38.351562 Z M 35.644531 38.351562 "/>
<path style=" stroke:none;fill-rule:nonzero;fill:rgb(100%,100%,100%);fill-opacity:1;" d="M 35.589844 28.917969 C 29.027344 28.917969 23.710938 26.71875 23.710938 24.015625 C 23.710938 21.316406 29.027344 19.117188 35.589844 19.117188 C 42.148438 19.117188 47.46875 21.316406 47.46875 24.015625 C 47.46875 26.71875 42.148438 28.917969 35.589844 28.917969 Z M 35.589844 28.917969 "/>
</g>
</svg>
