<?xml version="1.0" encoding="UTF-8"?>
<svg xmlns="http://www.w3.org/2000/svg" xmlns:xlink="http://www.w3.org/1999/xlink" width="70px" height="70px" viewBox="0 0 70 70" version="1.1">
<g id="surface1">
<path style=" stroke:none;fill-rule:nonzero;fill:rgb(35.294118%,33.333333%,39.215686%);fill-opacity:1;" d="M 57.078125 14.691406 L 55.15625 16.613281 C 64.660156 27.007812 64.660156 42.941406 55.15625 53.335938 L 57.078125 55.257812 C 67.652344 43.785156 67.652344 26.117188 57.078125 14.644531 Z M 57.078125 14.691406 "/>
<path style=" stroke:none;fill-rule:nonzero;fill:rgb(35.294118%,33.333333%,39.215686%);fill-opacity:1;" d="M 16.65625 14.855469 C 27.054688 5.351562 42.984375 5.351562 53.382812 14.855469 L 55.304688 12.933594 C 43.832031 2.359375 26.164062 2.359375 14.691406 12.933594 Z M 16.65625 14.855469 "/>
<path style=" stroke:none;fill-rule:nonzero;fill:rgb(35.294118%,33.333333%,39.215686%);fill-opacity:1;" d="M 14.855469 53.355469 C 5.363281 42.960938 5.363281 27.042969 14.855469 16.652344 L 12.933594 14.730469 C 2.359375 26.199219 2.359375 43.871094 12.933594 55.339844 Z M 14.855469 53.355469 "/>
<path style=" stroke:none;fill-rule:nonzero;fill:rgb(35.294118%,33.333333%,39.215686%);fill-opacity:1;" d="M 53.355469 55.128906 C 42.960938 64.636719 27.027344 64.636719 16.632812 55.128906 L 14.710938 57.050781 C 26.183594 67.628906 43.851562 67.628906 55.320312 57.050781 Z M 53.355469 55.128906 "/>
<path style=" stroke:none;fill-rule:nonzero;fill:rgb(94.117647%,57.254902%,25.882353%);fill-opacity:1;" d="M 47.132812 28.585938 C 46.75 24.578125 43.289062 23.230469 38.914062 22.820312 L 38.914062 17.296875 L 35.53125 17.296875 L 35.53125 22.71875 C 34.640625 22.71875 33.730469 22.71875 32.828125 22.71875 L 32.828125 17.296875 L 29.472656 17.296875 L 29.472656 22.859375 L 22.609375 22.859375 L 22.609375 26.480469 C 22.609375 26.480469 25.109375 26.433594 25.070312 26.480469 C 26.007812 26.375 26.855469 27.03125 26.992188 27.964844 L 26.992188 43.1875 C 26.972656 43.507812 26.824219 43.804688 26.582031 44.015625 C 26.34375 44.226562 26.027344 44.332031 25.710938 44.308594 C 25.753906 44.347656 23.25 44.308594 23.25 44.308594 L 22.609375 48.351562 L 29.40625 48.351562 L 29.40625 54.003906 L 32.789062 54.003906 L 32.789062 48.433594 L 35.492188 48.433594 L 35.492188 53.976562 L 38.882812 53.976562 L 38.882812 48.390625 C 44.597656 48.042969 48.582031 46.632812 49.082031 41.285156 C 49.484375 36.980469 47.460938 35.058594 44.226562 34.28125 C 46.191406 33.316406 47.410156 31.519531 47.132812 28.585938 Z M 42.394531 40.617188 C 42.394531 44.820312 35.191406 44.339844 32.898438 44.339844 L 32.898438 36.882812 C 35.191406 36.890625 42.394531 36.230469 42.394531 40.617188 Z M 40.824219 30.113281 C 40.824219 33.957031 34.8125 33.488281 32.90625 33.488281 L 32.90625 26.710938 C 34.8125 26.710938 40.824219 26.109375 40.824219 30.113281 Z M 40.824219 30.113281 "/>
<path style=" stroke:none;fill-rule:nonzero;fill:rgb(15.686275%,12.941176%,21.960784%);fill-opacity:1;" d="M 34.992188 70 C 15.664062 69.996094 0 54.324219 0 34.996094 C 0 15.667969 15.667969 0 34.996094 0 C 54.324219 0 69.996094 15.664062 70 34.992188 C 70.003906 54.328125 54.328125 70.003906 34.992188 70 Z M 34.992188 2.730469 C 17.1875 2.742188 2.761719 17.1875 2.769531 34.992188 C 2.773438 52.800781 17.210938 67.230469 35.019531 67.230469 C 52.828125 67.230469 67.261719 52.800781 67.269531 34.992188 C 67.273438 26.433594 63.875 18.222656 57.820312 12.171875 C 51.765625 6.117188 43.554688 2.722656 34.992188 2.730469 Z M 34.992188 2.730469 "/>
</g>
</svg>
