<?xml version="1.0" encoding="UTF-8"?>
<svg xmlns="http://www.w3.org/2000/svg" xmlns:xlink="http://www.w3.org/1999/xlink" width="70px" height="70px" viewBox="0 0 70 70" version="1.1">
<g id="surface1">
<path style=" stroke:none;fill-rule:nonzero;fill:rgb(96.078431%,67.45098%,21.568627%);fill-opacity:1;" d="M 35 0 C 54.332031 0 70 15.671875 70 35 C 70 54.332031 54.332031 70 35 70 C 15.671875 70 0 54.332031 0 35 C 0 15.671875 15.671875 0 35 0 Z M 35 0 "/>
<path style=" stroke:none;fill-rule:nonzero;fill:rgb(99.607843%,99.607843%,99.215686%);fill-opacity:1;" d="M 36.289062 37.472656 L 49.589844 37.472656 C 49.871094 37.472656 50.007812 37.472656 50.027344 37.097656 C 50.136719 35.746094 50.136719 34.386719 50.027344 33.03125 C 50.027344 32.769531 49.898438 32.660156 49.613281 32.660156 L 23.144531 32.660156 C 22.816406 32.660156 22.726562 32.769531 22.726562 33.074219 L 22.726562 36.96875 C 22.726562 37.472656 22.726562 37.472656 23.253906 37.472656 Z M 48.542969 28.109375 C 48.578125 28.011719 48.578125 27.902344 48.542969 27.804688 C 48.320312 27.320312 48.058594 26.859375 47.75 26.425781 C 47.292969 25.683594 46.75 25.003906 46.132812 24.390625 C 45.839844 24.019531 45.503906 23.6875 45.125 23.40625 C 43.234375 21.796875 40.980469 20.65625 38.5625 20.082031 C 37.34375 19.808594 36.09375 19.675781 34.84375 19.6875 L 23.097656 19.6875 C 22.769531 19.6875 22.726562 19.820312 22.726562 20.101562 L 22.726562 27.867188 C 22.726562 28.195312 22.726562 28.285156 23.140625 28.285156 L 48.382812 28.285156 C 48.382812 28.285156 48.601562 28.238281 48.648438 28.109375 L 48.539062 28.109375 Z M 48.542969 42.019531 C 48.171875 41.980469 47.796875 41.980469 47.421875 42.019531 L 23.164062 42.019531 C 22.835938 42.019531 22.726562 42.019531 22.726562 42.460938 L 22.726562 50.050781 C 22.726562 50.402344 22.726562 50.488281 23.164062 50.488281 L 34.367188 50.488281 C 34.902344 50.53125 35.4375 50.492188 35.960938 50.378906 C 37.585938 50.261719 39.183594 49.910156 40.710938 49.328125 C 41.265625 49.136719 41.800781 48.886719 42.304688 48.585938 L 42.457031 48.585938 C 45.082031 47.21875 47.214844 45.074219 48.5625 42.441406 C 48.5625 42.441406 48.714844 42.109375 48.542969 42.023438 Z M 18.332031 54.425781 L 18.332031 42.328125 C 18.332031 42.042969 18.332031 42 17.980469 42 L 13.234375 42 C 12.972656 42 12.863281 42 12.863281 41.652344 L 12.863281 37.496094 L 17.9375 37.496094 C 18.222656 37.496094 18.332031 37.496094 18.332031 37.125 L 18.332031 33.011719 C 18.332031 32.746094 18.332031 32.683594 17.980469 32.683594 L 13.234375 32.683594 C 12.972656 32.683594 12.863281 32.683594 12.863281 32.332031 L 12.863281 28.484375 C 12.863281 28.242188 12.863281 28.179688 13.210938 28.179688 L 17.914062 28.179688 C 18.242188 28.179688 18.332031 28.179688 18.332031 27.761719 L 18.332031 15.972656 C 18.332031 15.621094 18.332031 15.535156 18.769531 15.535156 L 35.175781 15.535156 C 36.367188 15.582031 37.546875 15.710938 38.71875 15.929688 C 41.128906 16.375 43.445312 17.234375 45.566406 18.464844 C 46.96875 19.292969 48.261719 20.289062 49.414062 21.441406 C 50.28125 22.339844 51.0625 23.3125 51.753906 24.351562 C 52.441406 25.398438 53.015625 26.523438 53.464844 27.695312 C 53.519531 28.003906 53.8125 28.207031 54.117188 28.15625 L 58.03125 28.15625 C 58.535156 28.15625 58.535156 28.15625 58.558594 28.636719 L 58.558594 32.226562 C 58.558594 32.574219 58.425781 32.664062 58.074219 32.664062 L 55.054688 32.664062 C 54.75 32.664062 54.664062 32.664062 54.683594 33.058594 C 54.804688 34.390625 54.804688 35.726562 54.683594 37.058594 C 54.683594 37.433594 54.683594 37.476562 55.101562 37.476562 L 58.554688 37.476562 C 58.707031 37.671875 58.554688 37.871094 58.554688 38.066406 C 58.578125 38.320312 58.578125 38.578125 58.554688 38.832031 L 58.554688 41.480469 C 58.554688 41.851562 58.445312 41.960938 58.117188 41.960938 L 53.984375 41.960938 C 53.695312 41.90625 53.414062 42.089844 53.347656 42.378906 C 52.363281 44.9375 50.789062 47.230469 48.753906 49.070312 C 48.011719 49.742188 47.230469 50.371094 46.414062 50.953125 C 45.539062 51.457031 44.6875 51.980469 43.789062 52.394531 C 42.136719 53.140625 40.402344 53.6875 38.625 54.035156 C 36.9375 54.339844 35.226562 54.476562 33.507812 54.453125 L 18.324219 54.453125 L 18.324219 54.429688 Z M 18.332031 54.425781 "/>
</g>
</svg>
