<?xml version="1.0" encoding="UTF-8"?>
<svg xmlns="http://www.w3.org/2000/svg" xmlns:xlink="http://www.w3.org/1999/xlink" width="70px" height="70px" viewBox="0 0 70 70" version="1.1">
<g id="surface1">
<path style=" stroke:none;fill-rule:nonzero;fill:rgb(98.039216%,20.392157%,95.294118%);fill-opacity:1;" d="M 68.207031 21.542969 L 66.410156 21.542969 C 66.410156 19.292969 66.410156 16.609375 66.410156 14.359375 C 65.515625 14.359375 63.714844 14.359375 62.820312 14.359375 C 62.820312 13.464844 62.820312 11.664062 62.820312 10.769531 C 61.925781 10.769531 60.125 10.769531 59.230469 10.769531 C 59.230469 9.875 59.230469 8.074219 59.230469 7.179688 C 58.335938 7.179688 56.535156 7.179688 55.640625 7.179688 C 55.640625 6.285156 55.640625 4.484375 55.640625 3.589844 C 53.390625 3.589844 50.710938 3.589844 48.460938 3.589844 C 48.460938 2.695312 48.460938 0.894531 48.460938 0 C 39.527344 0 30.480469 0 21.542969 0 C 21.542969 0.894531 21.542969 2.695312 21.542969 3.589844 C 19.292969 3.589844 16.613281 3.589844 14.363281 3.589844 C 14.363281 4.484375 14.363281 6.285156 14.363281 7.179688 C 13.46875 7.179688 11.667969 7.179688 10.773438 7.179688 C 10.773438 8.074219 10.773438 9.875 10.773438 10.769531 C 9.878906 10.769531 8.078125 10.769531 7.183594 10.769531 C 7.183594 11.664062 7.183594 13.464844 7.183594 14.359375 C 6.289062 14.359375 4.484375 14.359375 3.589844 14.359375 C 3.589844 16.609375 3.589844 19.292969 3.589844 21.542969 C 2.695312 21.542969 0.894531 21.542969 0 21.542969 C 0 23.503906 0 25.90625 0 27.867188 C 23.316406 27.867188 46.683594 27.867188 70 27.867188 C 70 25.910156 70 23.503906 70 21.542969 Z M 68.207031 21.542969 "/>
<path style=" stroke:none;fill-rule:nonzero;fill:rgb(81.176471%,8.235294%,97.647059%);fill-opacity:1;" d="M 68.207031 26.925781 C 45.488281 26.925781 22.722656 26.925781 0 26.925781 C 0 31.71875 0 36.941406 0 41.746094 C 23.316406 41.746094 46.683594 41.746094 70 41.746094 C 70 36.9375 70 31.722656 70 26.925781 Z M 68.207031 26.925781 "/>
<path style=" stroke:none;fill-rule:nonzero;fill:rgb(67.45098%,8.235294%,97.647059%);fill-opacity:1;" d="M 68.207031 37.695312 C 45.488281 37.695312 22.722656 37.695312 0 37.695312 C 0 41.1875 0 44.96875 0 48.460938 C 0.894531 48.460938 2.695312 48.460938 3.589844 48.460938 L 3.589844 50.125 C 24.507812 50.125 45.492188 50.125 66.410156 50.125 L 66.410156 48.460938 C 67.304688 48.460938 69.105469 48.460938 70 48.460938 C 70 44.96875 70 41.1875 70 37.695312 Z M 68.207031 37.695312 "/>
<path style=" stroke:none;fill-rule:nonzero;fill:rgb(56.078431%,9.019608%,97.647059%);fill-opacity:1;" d="M 64.617188 48.460938 C 44.292969 48.460938 23.914062 48.460938 3.589844 48.460938 C 3.589844 50.710938 3.589844 53.390625 3.589844 55.640625 C 4.484375 55.640625 6.289062 55.640625 7.183594 55.640625 C 7.183594 56.535156 7.183594 58.335938 7.183594 59.230469 C 8.078125 59.230469 9.878906 59.230469 10.773438 59.230469 L 10.835938 61.554688 C 26.941406 61.554688 43.128906 61.554688 59.230469 61.554688 L 59.230469 59.230469 C 60.125 59.230469 61.925781 59.230469 62.820312 59.230469 C 62.820312 58.335938 62.820312 56.535156 62.820312 55.640625 C 63.714844 55.640625 65.515625 55.640625 66.410156 55.640625 C 66.410156 53.390625 66.410156 50.710938 66.410156 48.460938 Z M 64.617188 48.460938 "/>
<path style=" stroke:none;fill-rule:nonzero;fill:rgb(49.411765%,9.411765%,97.254902%);fill-opacity:1;" d="M 34.105469 70 C 29.996094 70 25.648438 70 21.542969 70 C 21.542969 69.105469 21.542969 67.304688 21.542969 66.410156 C 19.292969 66.410156 16.613281 66.410156 14.363281 66.410156 C 14.363281 65.515625 14.363281 63.714844 14.363281 62.820312 C 13.46875 62.820312 11.667969 62.820312 10.773438 62.820312 C 10.773438 61.925781 10.773438 60.125 10.773438 59.230469 C 26.90625 59.230469 43.101562 59.230469 59.230469 59.230469 C 59.230469 60.125 59.230469 61.925781 59.230469 62.820312 C 58.335938 62.820312 56.535156 62.820312 55.640625 62.820312 C 55.640625 63.714844 55.640625 65.515625 55.640625 66.410156 C 53.390625 66.410156 50.710938 66.410156 48.460938 66.410156 C 48.460938 67.304688 48.460938 69.105469 48.460938 70 C 46.210938 70 43.53125 70 41.28125 70 C 39.035156 70 36.351562 70 34.105469 70 Z M 34.105469 70 "/>
<path style=" stroke:none;fill-rule:nonzero;fill:rgb(100%,100%,100%);fill-opacity:1;" d="M 45.425781 40.515625 L 45.425781 41.746094 C 46.042969 41.746094 47.28125 41.746094 47.898438 41.746094 C 47.898438 40.648438 47.898438 39.144531 47.898438 38.046875 C 47.28125 38.046875 46.042969 38.046875 45.425781 38.046875 C 45.425781 38.660156 45.425781 39.902344 45.425781 40.515625 Z M 45.425781 40.515625 "/>
<path style=" stroke:none;fill-rule:nonzero;fill:rgb(100%,100%,100%);fill-opacity:1;" d="M 42.957031 41.746094 C 40.976562 41.746094 38.761719 41.746094 36.78125 41.746094 C 36.78125 42.363281 36.78125 43.605469 36.78125 44.222656 C 38.328125 44.222656 40.171875 44.222656 41.71875 44.222656 C 41.71875 44.839844 41.71875 46.078125 41.71875 46.691406 C 42.335938 46.691406 43.574219 46.691406 44.191406 46.691406 C 44.191406 46.078125 44.191406 44.839844 44.191406 44.222656 L 45.425781 44.222656 C 45.425781 43.605469 45.425781 42.363281 45.425781 41.746094 C 44.8125 41.746094 43.574219 41.746094 42.957031 41.746094 Z M 42.957031 41.746094 "/>
<path style=" stroke:none;fill-rule:nonzero;fill:rgb(100%,100%,100%);fill-opacity:1;" d="M 39.25 38.046875 C 41.230469 38.046875 43.445312 38.046875 45.425781 38.046875 C 45.425781 37.429688 45.425781 36.1875 45.425781 35.570312 C 43.445312 35.570312 41.230469 35.570312 39.25 35.570312 C 39.25 36.1875 39.25 37.429688 39.25 38.046875 Z M 39.25 38.046875 "/>
<path style=" stroke:none;fill-rule:nonzero;fill:rgb(100%,100%,100%);fill-opacity:1;" d="M 36.78125 31.863281 C 36.78125 32.964844 36.78125 34.46875 36.78125 35.570312 C 37.394531 35.570312 38.636719 35.570312 39.25 35.570312 C 39.25 34.46875 39.25 32.964844 39.25 31.863281 C 38.636719 31.863281 37.394531 31.863281 36.78125 31.863281 Z M 36.78125 31.863281 "/>
<path style=" stroke:none;fill-rule:nonzero;fill:rgb(100%,100%,100%);fill-opacity:1;" d="M 45.425781 29.394531 L 44.191406 29.394531 C 44.191406 28.777344 44.191406 27.539062 44.191406 26.925781 C 43.574219 26.925781 42.335938 26.925781 41.71875 26.925781 C 41.71875 27.539062 41.71875 28.777344 41.71875 29.394531 C 41.105469 29.394531 39.867188 29.394531 39.25 29.394531 C 39.25 30.007812 39.25 31.25 39.25 31.863281 C 42.078125 31.863281 45.070312 31.863281 47.898438 31.863281 C 47.898438 31.25 47.898438 30.007812 47.898438 29.394531 C 47.28125 29.394531 46.042969 29.394531 45.425781 29.394531 Z M 45.425781 29.394531 "/>
<path style=" stroke:none;fill-rule:nonzero;fill:rgb(100%,100%,100%);fill-opacity:1;" d="M 61.488281 29.394531 C 57.824219 29.394531 54.035156 29.394531 50.371094 29.394531 C 50.371094 30.007812 50.371094 31.25 50.371094 31.863281 C 51.917969 31.863281 53.765625 31.863281 55.3125 31.863281 C 55.3125 35.945312 55.3125 40.140625 55.3125 44.222656 C 55.925781 44.222656 57.164062 44.222656 57.78125 44.222656 C 57.78125 40.140625 57.78125 35.945312 57.78125 31.863281 C 59.332031 31.863281 61.175781 31.863281 62.726562 31.863281 C 62.726562 31.25 62.726562 30.007812 62.726562 29.394531 Z M 61.488281 29.394531 "/>
<path style=" stroke:none;fill-rule:nonzero;fill:rgb(100%,100%,100%);fill-opacity:1;" d="M 31.835938 29.394531 C 31.835938 31.375 31.835938 33.589844 31.835938 35.570312 C 29.855469 35.570312 27.640625 35.570312 25.660156 35.570312 C 25.660156 33.589844 25.660156 31.375 25.660156 29.394531 C 25.042969 29.394531 23.804688 29.394531 23.191406 29.394531 C 23.191406 34.304688 23.191406 39.3125 23.191406 44.222656 C 23.804688 44.222656 25.042969 44.222656 25.660156 44.222656 C 25.660156 42.242188 25.660156 40.027344 25.660156 38.046875 C 27.640625 38.046875 29.855469 38.046875 31.835938 38.046875 C 31.835938 40.027344 31.835938 42.242188 31.835938 44.222656 C 32.453125 44.222656 33.691406 44.222656 34.304688 44.222656 C 34.304688 39.3125 34.304688 34.304688 34.304688 29.394531 C 33.691406 29.394531 32.453125 29.394531 31.835938 29.394531 Z M 31.835938 29.394531 "/>
<path style=" stroke:none;fill-rule:nonzero;fill:rgb(100%,100%,100%);fill-opacity:1;" d="M 18.246094 29.394531 C 15.839844 29.394531 13.242188 29.394531 10.835938 29.394531 C 10.835938 30.007812 10.835938 31.25 10.835938 31.863281 C 14.082031 31.863281 17.472656 31.863281 20.71875 31.863281 C 20.71875 31.25 20.71875 30.007812 20.71875 29.394531 C 20.101562 29.394531 18.863281 29.394531 18.246094 29.394531 Z M 18.246094 29.394531 "/>
<path style=" stroke:none;fill-rule:nonzero;fill:rgb(100%,100%,100%);fill-opacity:1;" d="M 20.71875 41.746094 C 20.71875 39.765625 20.71875 37.550781 20.71875 35.570312 C 18.3125 35.570312 15.710938 35.570312 13.304688 35.570312 C 13.304688 36.1875 13.304688 37.429688 13.304688 38.046875 C 14.851562 38.046875 16.699219 38.046875 18.246094 38.046875 C 18.246094 39.144531 18.246094 40.648438 18.246094 41.746094 C 18.863281 41.746094 20.101562 41.746094 20.71875 41.746094 Z M 20.71875 41.746094 "/>
<path style=" stroke:none;fill-rule:nonzero;fill:rgb(100%,100%,100%);fill-opacity:1;" d="M 10.835938 44.222656 C 13.242188 44.222656 15.839844 44.222656 18.246094 44.222656 C 18.246094 43.605469 18.246094 42.363281 18.246094 41.746094 C 15.839844 41.746094 13.242188 41.746094 10.835938 41.746094 C 10.835938 42.363281 10.835938 43.605469 10.835938 44.222656 Z M 10.835938 44.222656 "/>
<path style=" stroke:none;fill-rule:nonzero;fill:rgb(100%,100%,100%);fill-opacity:1;" d="M 8.359375 31.863281 C 8.359375 35.109375 8.359375 38.5 8.359375 41.746094 C 8.976562 41.746094 10.21875 41.746094 10.835938 41.746094 C 10.835938 38.5 10.835938 35.109375 10.835938 31.863281 C 10.21875 31.863281 8.976562 31.863281 8.359375 31.863281 Z M 8.359375 31.863281 "/>
</g>
</svg>
