<?xml version="1.0" encoding="UTF-8"?>
<svg xmlns="http://www.w3.org/2000/svg" xmlns:xlink="http://www.w3.org/1999/xlink" width="70px" height="70px" viewBox="0 0 70 70" version="1.1">
<g id="surface1">
<path style=" stroke:none;fill-rule:nonzero;fill:rgb(15.686275%,56.862745%,97.647059%);fill-opacity:1;" d="M 11.667969 21.539062 L 35 35.003906 L 35 43.984375 L 19.445312 35.003906 L 19.445312 52.960938 L 11.667969 48.472656 Z M 11.667969 21.539062 "/>
<path style=" stroke:none;fill-rule:nonzero;fill:rgb(16.862745%,74.117647%,96.862745%);fill-opacity:1;" d="M 19.445312 52.960938 L 19.445312 35.003906 L 27.222656 39.496094 L 27.222656 48.472656 Z M 19.445312 52.960938 "/>
<path style=" stroke:none;fill-rule:nonzero;fill:rgb(16.862745%,42.745098%,93.72549%);fill-opacity:1;" d="M 11.667969 21.539062 L 19.445312 17.050781 L 42.777344 30.515625 L 35 35.003906 Z M 11.667969 21.539062 "/>
<path style=" stroke:none;fill-rule:nonzero;fill:rgb(16.862745%,74.117647%,96.862745%);fill-opacity:1;" d="M 35 35.003906 L 42.777344 30.515625 L 42.777344 39.496094 L 35 43.984375 Z M 35 35.003906 "/>
<path style=" stroke:none;fill-rule:nonzero;fill:rgb(15.686275%,56.862745%,97.647059%);fill-opacity:1;" d="M 42.777344 21.539062 L 42.777344 48.472656 L 50.554688 52.960938 L 50.554688 26.027344 Z M 42.777344 21.539062 "/>
<path style=" stroke:none;fill-rule:nonzero;fill:rgb(16.862745%,74.117647%,96.862745%);fill-opacity:1;" d="M 58.332031 21.539062 L 50.554688 26.027344 L 50.554688 52.960938 L 58.332031 48.472656 Z M 58.332031 21.539062 "/>
<path style=" stroke:none;fill-rule:nonzero;fill:rgb(16.862745%,42.745098%,93.72549%);fill-opacity:1;" d="M 50.554688 17.050781 L 58.332031 21.539062 L 50.554688 26.027344 L 42.777344 21.539062 Z M 50.554688 17.050781 "/>
</g>
</svg>
