<?xml version="1.0" encoding="UTF-8"?>
<svg xmlns="http://www.w3.org/2000/svg" xmlns:xlink="http://www.w3.org/1999/xlink" width="70px" height="70px" viewBox="0 0 70 70" version="1.1">
<g id="surface1">
<path style=" stroke:none;fill-rule:nonzero;fill:rgb(100%,100%,100%);fill-opacity:1;" d="M 70 35 C 70 54.328125 54.328125 70 35 70 C 15.671875 70 0 54.328125 0 35 C 0 15.671875 15.671875 0 35 0 C 54.328125 0 70 15.671875 70 35 Z M 70 35 "/>
<path style=" stroke:none;fill-rule:evenodd;fill:rgb(16.862745%,74.117647%,96.862745%);fill-opacity:1;" d="M 29.480469 31.738281 L 34.988281 43.945312 L 43.179688 39.222656 L 43.1875 39.21875 L 43.1875 29.765625 Z M 29.480469 31.738281 "/>
<path style=" stroke:none;fill-rule:evenodd;fill:rgb(15.686275%,56.862745%,97.647059%);fill-opacity:1;" d="M 53.785156 22.675781 L 48.671875 20.75 L 43.207031 20.308594 L 43.207031 49.6875 L 51.40625 54.414062 L 57.878906 41.167969 L 53.796875 28.363281 Z M 53.785156 22.675781 "/>
<path style=" stroke:none;fill-rule:evenodd;fill:rgb(16.862745%,74.117647%,96.862745%);fill-opacity:1;" d="M 53.273438 20.320312 L 51.375 25.042969 L 51.371094 25.042969 L 51.371094 54.421875 L 59.574219 49.695312 L 59.574219 20.320312 Z M 53.273438 20.320312 "/>
<path style=" stroke:none;fill-rule:evenodd;fill:rgb(16.862745%,42.745098%,93.72549%);fill-opacity:1;" d="M 51.40625 15.585938 L 43.207031 20.3125 L 51.40625 25.042969 L 59.609375 20.3125 Z M 51.40625 15.585938 "/>
<path style=" stroke:none;fill-rule:evenodd;fill:rgb(15.686275%,56.862745%,97.647059%);fill-opacity:1;" d="M 34.992188 34.488281 L 26.792969 25.3125 L 10.390625 20.308594 L 10.390625 49.683594 L 18.589844 54.414062 L 20.933594 38.15625 L 26.792969 39.21875 L 26.792969 39.214844 L 34.992188 43.941406 Z M 34.992188 34.488281 "/>
<path style=" stroke:none;fill-rule:evenodd;fill:rgb(16.862745%,42.745098%,93.72549%);fill-opacity:1;" d="M 18.59375 15.585938 L 10.390625 20.3125 L 34.988281 34.496094 L 38.707031 32.355469 L 43.1875 29.769531 Z M 18.59375 15.585938 "/>
<path style=" stroke:none;fill-rule:evenodd;fill:rgb(16.862745%,74.117647%,96.862745%);fill-opacity:1;" d="M 18.597656 34.488281 L 18.597656 54.410156 L 26.796875 49.683594 L 26.796875 39.214844 Z M 18.597656 34.488281 "/>
</g>
</svg>
