<svg width="68" height="68" viewBox="0 0 68 68" fill="none" xmlns="http://www.w3.org/2000/svg">
<path d="M34 68C52.7777 68 68 52.7777 68 34C68 15.2223 52.7777 0 34 0C15.2223 0 0 15.2223 0 34C0 52.7777 15.2223 68 34 68Z" fill="#FF0420"/>
<path d="M24.0794 43.0166C22.3104 43.0921 20.5648 42.5907 19.1054 41.588C18.4749 41.1065 17.9713 40.4786 17.638 39.7587C17.3047 39.0388 17.1518 38.2485 17.1925 37.4562C17.2002 36.9946 17.2429 36.5341 17.3201 36.0789C17.5412 34.8527 17.8558 33.3818 18.2638 31.6662C19.4201 26.9898 22.4043 24.6516 27.2163 24.6516C28.4224 24.6318 29.62 24.8575 30.7362 25.3149C31.727 25.7032 32.5795 26.3781 33.1847 27.2534C33.7951 28.1553 34.107 29.226 34.0765 30.3145C34.0678 30.7676 34.0251 31.2194 33.9489 31.6662C33.6936 33.1796 33.3876 34.6506 33.0309 36.0789C32.4364 38.4084 31.4076 40.1513 29.9447 41.3077C28.4833 42.447 26.5282 43.0166 24.0794 43.0166ZM24.4367 39.3435C25.3201 39.3679 26.182 39.0686 26.8602 38.5018C27.6096 37.8222 28.1195 36.9186 28.3138 35.9257C28.7051 34.3278 29.0024 32.9335 29.2056 31.7425C29.274 31.3809 29.3082 31.0136 29.3076 30.6456C29.3076 29.098 28.5 28.3243 26.8847 28.3247C25.9941 28.3033 25.1254 28.6019 24.4361 29.1663C23.7005 29.8532 23.2006 30.7548 23.0076 31.7425C22.7014 32.8818 22.3954 34.2762 22.0896 35.9257C22.0204 36.2785 21.9862 36.6373 21.9876 36.9969C21.9876 38.5613 22.804 39.3435 24.4367 39.3435Z" fill="white"/>
<path d="M35.251 42.762C35.17 42.7667 35.0889 42.7531 35.0138 42.7222C34.9388 42.6914 34.8716 42.644 34.8174 42.5836C34.7325 42.4465 34.7051 42.2815 34.741 42.1243L38.2608 25.5446C38.292 25.3616 38.3916 25.1974 38.5395 25.0853C38.6762 24.9725 38.8472 24.9096 39.0245 24.9069H45.8094C47.4068 24.8286 48.9903 25.2377 50.3498 26.0802C50.9087 26.4463 51.3626 26.9517 51.6668 27.5467C51.9709 28.1416 52.1149 28.8055 52.0844 29.473C52.0819 29.9194 52.0305 30.3643 51.9311 30.7995C51.6498 32.5181 50.7296 34.067 49.3549 35.1359C48.0796 36.0712 46.3281 36.5388 44.1005 36.5388H40.6576L39.4843 42.1249C39.4531 42.3078 39.3534 42.472 39.2056 42.5842C39.069 42.6968 38.8982 42.7597 38.7212 42.7625L35.251 42.762ZM44.2805 33.0179C44.9488 33.0326 45.6034 32.8265 46.1427 32.4315C46.6976 32.024 47.0798 31.4235 47.214 30.7482C47.2614 30.4958 47.2869 30.2398 47.2903 29.983C47.3048 29.7755 47.2735 29.5674 47.1986 29.3734C47.1236 29.1794 47.0069 29.0043 46.8567 28.8604C46.4311 28.5461 45.904 28.4007 45.3774 28.4524H42.3169L41.3476 33.0179H44.2805Z" fill="white"/>
</svg>
