<?xml version="1.0" encoding="UTF-8"?>
<svg xmlns="http://www.w3.org/2000/svg" xmlns:xlink="http://www.w3.org/1999/xlink" width="70px" height="61px" viewBox="0 0 68 61" version="1.1">
<g id="surface1">
<path style=" stroke:none;fill-rule:nonzero;fill:rgb(50.980392%,27.843137%,89.803922%);fill-opacity:1;" d="M 51.355469 18.871094 C 50.113281 18.160156 48.519531 18.160156 47.105469 18.871094 L 37.1875 24.730469 L 30.457031 28.457031 L 20.71875 34.316406 C 19.480469 35.027344 17.886719 35.027344 16.46875 34.316406 L 8.855469 29.699219 C 7.613281 28.992188 6.730469 27.570312 6.730469 25.972656 L 6.730469 17.09375 C 6.730469 15.675781 7.4375 14.253906 8.855469 13.367188 L 16.46875 8.929688 C 17.707031 8.21875 19.300781 8.21875 20.71875 8.929688 L 28.332031 13.542969 C 29.574219 14.253906 30.457031 15.675781 30.457031 17.273438 L 30.457031 23.132812 L 37.1875 19.226562 L 37.1875 13.191406 C 37.1875 11.769531 36.480469 10.347656 35.0625 9.460938 L 20.894531 1.117188 C 19.65625 0.40625 18.0625 0.40625 16.644531 1.117188 L 2.125 9.640625 C 0.707031 10.347656 0 11.769531 0 13.191406 L 0 29.878906 C 0 31.300781 0.707031 32.71875 2.125 33.605469 L 16.46875 41.953125 C 17.707031 42.660156 19.300781 42.660156 20.71875 41.953125 L 30.457031 36.269531 L 37.1875 32.363281 L 46.925781 26.683594 C 48.167969 25.972656 49.761719 25.972656 51.175781 26.683594 L 58.792969 31.121094 C 60.03125 31.832031 60.917969 33.25 60.917969 34.851562 L 60.917969 43.726562 C 60.917969 45.148438 60.207031 46.566406 58.792969 47.457031 L 51.355469 51.894531 C 50.113281 52.605469 48.519531 52.605469 47.105469 51.894531 L 39.488281 47.457031 C 38.25 46.746094 37.363281 45.324219 37.363281 43.726562 L 37.363281 38.046875 L 30.636719 41.953125 L 30.636719 47.808594 C 30.636719 49.230469 31.34375 50.652344 32.761719 51.539062 L 47.105469 59.882812 C 48.34375 60.59375 49.9375 60.59375 51.355469 59.882812 L 65.699219 51.539062 C 66.9375 50.828125 67.824219 49.410156 67.824219 47.808594 L 67.824219 30.945312 C 67.824219 29.523438 67.113281 28.101562 65.699219 27.214844 Z M 51.355469 18.871094 "/>
</g>
</svg>
