<?xml version="1.0" encoding="UTF-8"?>
<svg xmlns="http://www.w3.org/2000/svg" xmlns:xlink="http://www.w3.org/1999/xlink" width="70px" height="70px" viewBox="0 0 70 70" version="1.1">
<g id="surface1">
<path style=" stroke:none;fill-rule:nonzero;fill:rgb(0%,0%,0%);fill-opacity:1;" d="M 55.546875 32.480469 L 65.625 32.480469 L 65.625 57.714844 L 55.546875 57.714844 Z M 55.546875 32.480469 "/>
<path style=" stroke:none;fill-rule:nonzero;fill:rgb(0%,70.196078%,92.941176%);fill-opacity:1;" d="M 55.546875 29.363281 L 64.539062 25.445312 C 65.203125 25.164062 65.625 24.5 65.625 23.765625 L 65.625 19.355469 L 65.589844 19.355469 L 57.085938 23.066406 C 56.140625 23.484375 55.546875 24.394531 55.546875 25.410156 Z M 55.546875 29.363281 "/>
<path style=" stroke:none;fill-rule:nonzero;fill:rgb(0%,0%,0%);fill-opacity:1;" d="M 13.613281 32.304688 C 15.261719 24.746094 22.714844 19.984375 30.273438 21.628906 C 36.714844 23.03125 41.265625 28.734375 41.265625 35.316406 C 41.265625 36.191406 41.160156 37.03125 40.984375 37.871094 L 45.640625 48.054688 C 52.851562 37.800781 50.398438 23.625 40.144531 16.414062 C 29.890625 9.203125 15.75 11.65625 8.503906 21.910156 C 1.261719 32.164062 3.746094 46.339844 14 53.550781 C 18.898438 57.015625 24.953125 58.378906 30.871094 57.363281 L 27.230469 49.28125 C 19.496094 49.246094 13.265625 42.980469 13.265625 35.246094 C 13.300781 34.265625 13.40625 33.285156 13.613281 32.304688 "/>
<path style=" stroke:none;fill-rule:nonzero;fill:rgb(0%,70.196078%,92.941176%);fill-opacity:1;" d="M 45.78125 57.714844 L 35.28125 57.714844 L 28.664062 43.015625 L 39.128906 43.015625 Z M 45.78125 57.714844 "/>
</g>
</svg>
