<?xml version="1.0" encoding="UTF-8"?>
<svg xmlns="http://www.w3.org/2000/svg" xmlns:xlink="http://www.w3.org/1999/xlink" width="70px" height="70px" viewBox="0 0 70 70" version="1.1">
<g id="surface1">
<path style=" stroke:none;fill-rule:nonzero;fill:rgb(15.294118%,45.882353%,79.215686%);fill-opacity:1;" d="M 35 70 C 54.394531 70 70 54.394531 70 35 C 70 15.605469 54.394531 0 35 0 C 15.605469 0 0 15.605469 0 35 C 0 54.394531 15.605469 70 35 70 Z M 35 70 "/>
<path style=" stroke:none;fill-rule:nonzero;fill:rgb(100%,100%,100%);fill-opacity:1;" d="M 44.625 40.542969 C 44.625 35.4375 41.5625 33.6875 35.4375 32.957031 C 31.0625 32.375 30.1875 31.207031 30.1875 29.167969 C 30.1875 27.125 31.644531 25.8125 34.5625 25.8125 C 37.1875 25.8125 38.644531 26.6875 39.375 28.875 C 39.519531 29.3125 39.957031 29.605469 40.394531 29.605469 L 42.730469 29.605469 C 43.3125 29.605469 43.75 29.167969 43.75 28.582031 L 43.75 28.4375 C 43.167969 25.230469 40.542969 22.75 37.1875 22.457031 L 37.1875 18.957031 C 37.1875 18.375 36.75 17.9375 36.019531 17.792969 L 33.832031 17.792969 C 33.25 17.792969 32.8125 18.230469 32.667969 18.957031 L 32.667969 22.3125 C 28.292969 22.894531 25.519531 25.8125 25.519531 29.457031 C 25.519531 34.269531 28.4375 36.167969 34.5625 36.894531 C 38.644531 37.625 39.957031 38.5 39.957031 40.832031 C 39.957031 43.167969 37.917969 44.769531 35.144531 44.769531 C 31.355469 44.769531 30.042969 43.167969 29.605469 40.980469 C 29.457031 40.394531 29.019531 40.105469 28.582031 40.105469 L 26.105469 40.105469 C 25.519531 40.105469 25.082031 40.542969 25.082031 41.125 L 25.082031 41.269531 C 25.667969 44.917969 28 47.542969 32.8125 48.269531 L 32.8125 51.769531 C 32.8125 52.355469 33.25 52.792969 33.980469 52.9375 L 36.167969 52.9375 C 36.75 52.9375 37.1875 52.5 37.332031 51.769531 L 37.332031 48.269531 C 41.707031 47.542969 44.625 44.480469 44.625 40.542969 Z M 44.625 40.542969 "/>
<path style=" stroke:none;fill-rule:nonzero;fill:rgb(100%,100%,100%);fill-opacity:1;" d="M 27.5625 55.855469 C 16.1875 51.769531 10.355469 39.082031 14.582031 27.855469 C 16.769531 21.730469 21.582031 17.0625 27.5625 14.875 C 28.144531 14.582031 28.4375 14.144531 28.4375 13.417969 L 28.4375 11.375 C 28.4375 10.792969 28.144531 10.355469 27.5625 10.207031 C 27.417969 10.207031 27.125 10.207031 26.980469 10.355469 C 13.125 14.730469 5.542969 29.457031 9.917969 43.3125 C 12.542969 51.480469 18.8125 57.75 26.980469 60.375 C 27.5625 60.667969 28.144531 60.375 28.292969 59.792969 C 28.4375 59.644531 28.4375 59.5 28.4375 59.207031 L 28.4375 57.167969 C 28.4375 56.730469 28 56.144531 27.5625 55.855469 Z M 43.019531 10.355469 C 42.4375 10.0625 41.855469 10.355469 41.707031 10.9375 C 41.5625 11.082031 41.5625 11.230469 41.5625 11.519531 L 41.5625 13.5625 C 41.5625 14.144531 42 14.730469 42.4375 15.019531 C 53.8125 19.105469 59.644531 31.792969 55.417969 43.019531 C 53.230469 49.144531 48.417969 53.8125 42.4375 56 C 41.855469 56.292969 41.5625 56.730469 41.5625 57.457031 L 41.5625 59.5 C 41.5625 60.082031 41.855469 60.519531 42.4375 60.667969 C 42.582031 60.667969 42.875 60.667969 43.019531 60.519531 C 56.875 56.144531 64.457031 41.417969 60.082031 27.5625 C 57.457031 19.25 51.042969 12.980469 43.019531 10.355469 Z M 43.019531 10.355469 "/>
</g>
</svg>
