<?xml version="1.0" encoding="UTF-8"?>
<svg xmlns="http://www.w3.org/2000/svg" xmlns:xlink="http://www.w3.org/1999/xlink" width="70px" height="61px" viewBox="0 0 70 61" version="1.1">
<g id="surface1">
<path style=" stroke:none;fill-rule:evenodd;fill:rgb(31.372549%,68.627451%,58.431373%);fill-opacity:1;" d="M 12.816406 0.308594 L 0.0546875 27.15625 C -0.046875 27.363281 0 27.609375 0.164062 27.765625 L 34.636719 60.84375 C 34.839844 61.039062 35.160156 61.039062 35.363281 60.84375 L 69.835938 27.765625 C 70 27.609375 70.046875 27.363281 69.945312 27.160156 L 57.183594 0.3125 C 57.097656 0.128906 56.914062 0.0117188 56.710938 0.0117188 L 13.292969 0.0117188 C 13.089844 0.0078125 12.902344 0.125 12.816406 0.308594 Z M 12.816406 0.308594 "/>
<path style=" stroke:none;fill-rule:evenodd;fill:rgb(100%,100%,100%);fill-opacity:1;" d="M 39.429688 29.914062 C 39.179688 29.933594 37.902344 30.007812 35.050781 30.007812 C 32.78125 30.007812 31.171875 29.941406 30.605469 29.914062 C 21.839844 29.527344 15.296875 28 15.296875 26.171875 C 15.296875 24.339844 21.839844 22.8125 30.605469 22.421875 L 30.605469 28.390625 C 31.179688 28.433594 32.820312 28.53125 35.089844 28.53125 C 37.8125 28.53125 39.175781 28.417969 39.421875 28.394531 L 39.421875 22.425781 C 48.167969 22.816406 54.699219 24.34375 54.699219 26.171875 C 54.699219 27.996094 48.171875 29.523438 39.421875 29.914062 Z M 39.429688 21.808594 L 39.429688 16.464844 L 51.636719 16.464844 L 51.636719 8.320312 L 18.398438 8.320312 L 18.398438 16.464844 L 30.605469 16.464844 L 30.605469 21.804688 C 20.683594 22.261719 13.222656 24.230469 13.222656 26.589844 C 13.222656 28.949219 20.683594 30.914062 30.605469 31.371094 L 30.605469 48.492188 L 39.425781 48.492188 L 39.425781 31.367188 C 49.324219 30.910156 56.773438 28.945312 56.773438 26.585938 C 56.773438 24.230469 49.332031 22.265625 39.425781 21.804688 Z M 39.429688 21.808594 Z M 39.429688 21.808594 "/>
</g>
</svg>
